REM GoldWave
FILE "Зазнобин В.М. В Пуще. Ответы на вопросы (2 июля 2016 г.).m4a" BINARY
  TRACK 01 AUDIO
    TITLE "00:00:00.00000"
    PERFORMER "Владимир Михайлович Зазнобин. Видеоархив"
    INDEX 01 00:00:00
  TRACK 02 AUDIO
    TITLE "00:00:12.93342"
    PERFORMER "Владимир Михайлович Зазнобин. Видеоархив"
    INDEX 01 00:12:70
  TRACK 03 AUDIO
    TITLE "00:00:25.63236"
    PERFORMER "Владимир Михайлович Зазнобин. Видеоархив"
    INDEX 01 00:25:47
  TRACK 04 AUDIO
    TITLE "00:00:39.73329"
    PERFORMER "Владимир Михайлович Зазнобин. Видеоархив"
    INDEX 01 00:39:55
  TRACK 05 AUDIO
    TITLE "00:00:52.39878"
    PERFORMER "Владимир Михайлович Зазнобин. Видеоархив"
    INDEX 01 00:52:30
  TRACK 06 AUDIO
    TITLE "00:01:05.82308"
    PERFORMER "Владимир Михайлович Зазнобин. Видеоархив"
    INDEX 01 01:05:62
  TRACK 07 AUDIO
    TITLE "00:01:19.43966"
    PERFORMER "Владимир Михайлович Зазнобин. Видеоархив"
    INDEX 01 01:19:33
  TRACK 08 AUDIO
    TITLE "00:01:33.71104"
    PERFORMER "Владимир Михайлович Зазнобин. Видеоархив"
    INDEX 01 01:33:53
  TRACK 09 AUDIO
    TITLE "00:01:46.52002"
    PERFORMER "Владимир Михайлович Зазнобин. Видеоархив"
    INDEX 01 01:46:39
  TRACK 10 AUDIO
    TITLE "00:01:58.90687"
    PERFORMER "Владимир Михайлович Зазнобин. Видеоархив"
    INDEX 01 01:58:68
  TRACK 11 AUDIO
    TITLE "00:02:11.79154"
    PERFORMER "Владимир Михайлович Зазнобин. Видеоархив"
    INDEX 01 02:11:59
  TRACK 12 AUDIO
    TITLE "00:02:24.46168"
    PERFORMER "Владимир Михайлович Зазнобин. Видеоархив"
    INDEX 01 02:24:35
  TRACK 13 AUDIO
    TITLE "00:02:37.80193"
    PERFORMER "Владимир Михайлович Зазнобин. Видеоархив"
    INDEX 01 02:37:60
  TRACK 14 AUDIO
    TITLE "00:02:50.36338"
    PERFORMER "Владимир Михайлович Зазнобин. Видеоархив"
    INDEX 01 02:50:27
  TRACK 15 AUDIO
    TITLE "00:03:03.12871"
    PERFORMER "Владимир Михайлович Зазнобин. Видеоархив"
    INDEX 01 03:03:10
  TRACK 16 AUDIO
    TITLE "00:03:17.26077"
    PERFORMER "Владимир Михайлович Зазнобин. Видеоархив"
    INDEX 01 03:17:20
  TRACK 17 AUDIO
    TITLE "00:03:30.38184"
    PERFORMER "Владимир Михайлович Зазнобин. Видеоархив"
    INDEX 01 03:30:29
  TRACK 18 AUDIO
    TITLE "00:03:45.66932"
    PERFORMER "Владимир Михайлович Зазнобин. Видеоархив"
    INDEX 01 03:45:50
  TRACK 19 AUDIO
    TITLE "00:03:58.95476"
    PERFORMER "Владимир Михайлович Зазнобин. Видеоархив"
    INDEX 01 03:58:72
  TRACK 20 AUDIO
    TITLE "00:04:13.89488"
    PERFORMER "Владимир Михайлович Зазнобин. Видеоархив"
    INDEX 01 04:13:67
  TRACK 21 AUDIO
    TITLE "00:04:28.25590"
    PERFORMER "Владимир Михайлович Зазнобин. Видеоархив"
    INDEX 01 04:28:19
  TRACK 22 AUDIO
    TITLE "00:04:42.95127"
    PERFORMER "Владимир Михайлович Зазнобин. Видеоархив"
    INDEX 01 04:42:71
  TRACK 23 AUDIO
    TITLE "00:04:55.89351"
    PERFORMER "Владимир Михайлович Зазнобин. Видеоархив"
    INDEX 01 04:55:67
  TRACK 24 AUDIO
    TITLE "00:05:10.06367"
    PERFORMER "Владимир Михайлович Зазнобин. Видеоархив"
    INDEX 01 05:10:05
  TRACK 25 AUDIO
    TITLE "00:05:25.18628"
    PERFORMER "Владимир Михайлович Зазнобин. Видеоархив"
    INDEX 01 05:25:14
  TRACK 26 AUDIO
    TITLE "00:05:38.47034"
    PERFORMER "Владимир Михайлович Зазнобин. Видеоархив"
    INDEX 01 05:38:35
  TRACK 27 AUDIO
    TITLE "00:05:52.19327"
    PERFORMER "Владимир Михайлович Зазнобин. Видеоархив"
    INDEX 01 05:52:14
  TRACK 28 AUDIO
    TITLE "00:06:06.41587"
    PERFORMER "Владимир Михайлович Зазнобин. Видеоархив"
    INDEX 01 06:06:31
  TRACK 29 AUDIO
    TITLE "00:06:19.97488"
    PERFORMER "Владимир Михайлович Зазнобин. Видеоархив"
    INDEX 01 06:19:73
  TRACK 30 AUDIO
    TITLE "00:06:34.16172"
    PERFORMER "Владимир Михайлович Зазнобин. Видеоархив"
    INDEX 01 06:34:12
  TRACK 31 AUDIO
    TITLE "00:06:47.39100"
    PERFORMER "Владимир Михайлович Зазнобин. Видеоархив"
    INDEX 01 06:47:29
  TRACK 32 AUDIO
    TITLE "00:07:01.50122"
    PERFORMER "Владимир Михайлович Зазнобин. Видеоархив"
    INDEX 01 07:01:38
  TRACK 33 AUDIO
    TITLE "00:07:14.77460"
    PERFORMER "Владимир Михайлович Зазнобин. Видеоархив"
    INDEX 01 07:14:58
  TRACK 34 AUDIO
    TITLE "00:07:27.65927"
    PERFORMER "Владимир Михайлович Зазнобин. Видеоархив"
    INDEX 01 07:27:49
  TRACK 35 AUDIO
    TITLE "00:07:41.17415"
    PERFORMER "Владимир Михайлович Зазнобин. Видеоархив"
    INDEX 01 07:41:13
  TRACK 36 AUDIO
    TITLE "00:07:53.81966"
    PERFORMER "Владимир Михайлович Зазнобин. Видеоархив"
    INDEX 01 07:53:61
  TRACK 37 AUDIO
    TITLE "00:08:06.75311"
    PERFORMER "Владимир Михайлович Зазнобин. Видеоархив"
    INDEX 01 08:06:56
  TRACK 38 AUDIO
    TITLE "00:08:19.90063"
    PERFORMER "Владимир Михайлович Зазнобин. Видеоархив"
    INDEX 01 08:19:68
  TRACK 39 AUDIO
    TITLE "00:08:33.16567"
    PERFORMER "Владимир Михайлович Зазнобин. Видеоархив"
    INDEX 01 08:33:12
  TRACK 40 AUDIO
    TITLE "00:08:45.73825"
    PERFORMER "Владимир Михайлович Зазнобин. Видеоархив"
    INDEX 01 08:45:55
  TRACK 41 AUDIO
    TITLE "00:09:00.05608"
    PERFORMER "Владимир Михайлович Зазнобин. Видеоархив"
    INDEX 01 09:00:04
  TRACK 42 AUDIO
    TITLE "00:09:13.40748"
    PERFORMER "Владимир Михайлович Зазнобин. Видеоархив"
    INDEX 01 09:13:31
  TRACK 43 AUDIO
    TITLE "00:09:27.40023"
    PERFORMER "Владимир Михайлович Зазнобин. Видеоархив"
    INDEX 01 09:27:30
  TRACK 44 AUDIO
    TITLE "00:09:42.57068"
    PERFORMER "Владимир Михайлович Зазнобин. Видеоархив"
    INDEX 01 09:42:43
  TRACK 45 AUDIO
    TITLE "00:09:57.52751"
    PERFORMER "Владимир Михайлович Зазнобин. Видеоархив"
    INDEX 01 09:57:40
  TRACK 46 AUDIO
    TITLE "00:10:12.72580"
    PERFORMER "Владимир Михайлович Зазнобин. Видеоархив"
    INDEX 01 10:12:54
  TRACK 47 AUDIO
    TITLE "00:10:25.62070"
    PERFORMER "Владимир Михайлович Зазнобин. Видеоархив"
    INDEX 01 10:25:47
  TRACK 48 AUDIO
    TITLE "00:10:38.95029"
    PERFORMER "Владимир Михайлович Зазнобин. Видеоархив"
    INDEX 01 10:38:71
  TRACK 49 AUDIO
    TITLE "00:10:52.11964"
    PERFORMER "Владимир Михайлович Зазнобин. Видеоархив"
    INDEX 01 10:52:09
  TRACK 50 AUDIO
    TITLE "00:11:05.85834"
    PERFORMER "Владимир Михайлович Зазнобин. Видеоархив"
    INDEX 01 11:05:64
  TRACK 51 AUDIO
    TITLE "00:11:21.50063"
    PERFORMER "Владимир Михайлович Зазнобин. Видеоархив"
    INDEX 01 11:21:38
  TRACK 52 AUDIO
    TITLE "00:11:34.66766"
    PERFORMER "Владимир Михайлович Зазнобин. Видеоархив"
    INDEX 01 11:34:50
  TRACK 53 AUDIO
    TITLE "00:11:49.45220"
    PERFORMER "Владимир Михайлович Зазнобин. Видеоархив"
    INDEX 01 11:49:34
  TRACK 54 AUDIO
    TITLE "00:12:02.51800"
    PERFORMER "Владимир Михайлович Зазнобин. Видеоархив"
    INDEX 01 12:02:39
  TRACK 55 AUDIO
    TITLE "00:12:15.61492"
    PERFORMER "Владимир Михайлович Зазнобин. Видеоархив"
    INDEX 01 12:15:46
  TRACK 56 AUDIO
    TITLE "00:12:31.87252"
    PERFORMER "Владимир Михайлович Зазнобин. Видеоархив"
    INDEX 01 12:31:65
  TRACK 57 AUDIO
    TITLE "00:12:45.61866"
    PERFORMER "Владимир Михайлович Зазнобин. Видеоархив"
    INDEX 01 12:45:46
  TRACK 58 AUDIO
    TITLE "00:12:58.66497"
    PERFORMER "Владимир Михайлович Зазнобин. Видеоархив"
    INDEX 01 12:58:50
  TRACK 59 AUDIO
    TITLE "00:13:13.12163"
    PERFORMER "Владимир Михайлович Зазнобин. Видеоархив"
    INDEX 01 13:13:09
  TRACK 60 AUDIO
    TITLE "00:13:28.21546"
    PERFORMER "Владимир Михайлович Зазнобин. Видеоархив"
    INDEX 01 13:28:16
  TRACK 61 AUDIO
    TITLE "00:13:42.29224"
    PERFORMER "Владимир Михайлович Зазнобин. Видеоархив"
    INDEX 01 13:42:22
  TRACK 62 AUDIO
    TITLE "00:13:55.81780"
    PERFORMER "Владимир Михайлович Зазнобин. Видеоархив"
    INDEX 01 13:55:61
  TRACK 63 AUDIO
    TITLE "00:14:10.01023"
    PERFORMER "Владимир Михайлович Зазнобин. Видеоархив"
    INDEX 01 14:10:01
  TRACK 64 AUDIO
    TITLE "00:14:25.00608"
    PERFORMER "Владимир Михайлович Зазнобин. Видеоархив"
    INDEX 01 14:25:00
  TRACK 65 AUDIO
    TITLE "00:14:40.44494"
    PERFORMER "Владимир Михайлович Зазнобин. Видеоархив"
    INDEX 01 14:40:33
  TRACK 66 AUDIO
    TITLE "00:14:54.31973"
    PERFORMER "Владимир Михайлович Зазнобин. Видеоархив"
    INDEX 01 14:54:24
  TRACK 67 AUDIO
    TITLE "00:15:08.04683"
    PERFORMER "Владимир Михайлович Зазнобин. Видеоархив"
    INDEX 01 15:08:04
  TRACK 68 AUDIO
    TITLE "00:15:24.30442"
    PERFORMER "Владимир Михайлович Зазнобин. Видеоархив"
    INDEX 01 15:24:23
  TRACK 69 AUDIO
    TITLE "00:15:38.68215"
    PERFORMER "Владимир Михайлович Зазнобин. Видеоархив"
    INDEX 01 15:38:51
  TRACK 70 AUDIO
    TITLE "00:15:53.33805"
    PERFORMER "Владимир Михайлович Зазнобин. Видеоархив"
    INDEX 01 15:53:25
  TRACK 71 AUDIO
    TITLE "00:16:08.45556"
    PERFORMER "Владимир Михайлович Зазнобин. Видеоархив"
    INDEX 01 16:08:34
  TRACK 72 AUDIO
    TITLE "00:16:22.06517"
    PERFORMER "Владимир Михайлович Зазнобин. Видеоархив"
    INDEX 01 16:22:05
  TRACK 73 AUDIO
    TITLE "00:16:34.74413"
    PERFORMER "Владимир Михайлович Зазнобин. Видеоархив"
    INDEX 01 16:34:56
  TRACK 74 AUDIO
    TITLE "00:16:49.83376"
    PERFORMER "Владимир Михайлович Зазнобин. Видеоархив"
    INDEX 01 16:49:63
  TRACK 75 AUDIO
    TITLE "00:17:03.36814"
    PERFORMER "Владимир Михайлович Зазнобин. Видеоархив"
    INDEX 01 17:03:28
  TRACK 76 AUDIO
    TITLE "00:17:18.52374"
    PERFORMER "Владимир Михайлович Зазнобин. Видеоархив"
    INDEX 01 17:18:39
  TRACK 77 AUDIO
    TITLE "00:17:31.35084"
    PERFORMER "Владимир Михайлович Зазнобин. Видеоархив"
    INDEX 01 17:31:26
  TRACK 78 AUDIO
    TITLE "00:17:44.43705"
    PERFORMER "Владимир Михайлович Зазнобин. Видеоархив"
    INDEX 01 17:44:33
  TRACK 79 AUDIO
    TITLE "00:17:57.23955"
    PERFORMER "Владимир Михайлович Зазнобин. Видеоархив"
    INDEX 01 17:57:18
  TRACK 80 AUDIO
    TITLE "00:18:10.25007"
    PERFORMER "Владимир Михайлович Зазнобин. Видеоархив"
    INDEX 01 18:10:19
  TRACK 81 AUDIO
    TITLE "00:18:25.79066"
    PERFORMER "Владимир Михайлович Зазнобин. Видеоархив"
    INDEX 01 18:25:59
  TRACK 82 AUDIO
    TITLE "00:18:38.48726"
    PERFORMER "Владимир Михайлович Зазнобин. Видеоархив"
    INDEX 01 18:38:37
  TRACK 83 AUDIO
    TITLE "00:18:51.29669"
    PERFORMER "Владимир Михайлович Зазнобин. Видеоархив"
    INDEX 01 18:51:22
  TRACK 84 AUDIO
    TITLE "00:19:09.17320"
    PERFORMER "Владимир Михайлович Зазнобин. Видеоархив"
    INDEX 01 19:09:13
  TRACK 85 AUDIO
    TITLE "00:19:24.81687"
    PERFORMER "Владимир Михайлович Зазнобин. Видеоархив"
    INDEX 01 19:24:61
  TRACK 86 AUDIO
    TITLE "00:19:38.00202"
    PERFORMER "Владимир Михайлович Зазнобин. Видеоархив"
    INDEX 01 19:38:00
  TRACK 87 AUDIO
    TITLE "00:19:52.39553"
    PERFORMER "Владимир Михайлович Зазнобин. Видеоархив"
    INDEX 01 19:52:30
  TRACK 88 AUDIO
    TITLE "00:20:06.70129"
    PERFORMER "Владимир Михайлович Зазнобин. Видеоархив"
    INDEX 01 20:06:53
  TRACK 89 AUDIO
    TITLE "00:20:20.07034"
    PERFORMER "Владимир Михайлович Зазнобин. Видеоархив"
    INDEX 01 20:20:05
  TRACK 90 AUDIO
    TITLE "00:20:37.01061"
    PERFORMER "Владимир Михайлович Зазнобин. Видеоархив"
    INDEX 01 20:37:01
  TRACK 91 AUDIO
    TITLE "00:20:52.62177"
    PERFORMER "Владимир Михайлович Зазнобин. Видеоархив"
    INDEX 01 20:52:47
  TRACK 92 AUDIO
    TITLE "00:21:07.66685"
    PERFORMER "Владимир Михайлович Зазнобин. Видеоархив"
    INDEX 01 21:07:50
  TRACK 93 AUDIO
    TITLE "00:21:21.54302"
    PERFORMER "Владимир Михайлович Зазнобин. Видеоархив"
    INDEX 01 21:21:41
  TRACK 94 AUDIO
    TITLE "00:21:35.01748"
    PERFORMER "Владимир Михайлович Зазнобин. Видеоархив"
    INDEX 01 21:35:01
  TRACK 95 AUDIO
    TITLE "00:21:50.45542"
    PERFORMER "Владимир Михайлович Зазнобин. Видеоархив"
    INDEX 01 21:50:34
  TRACK 96 AUDIO
    TITLE "00:22:05.85066"
    PERFORMER "Владимир Михайлович Зазнобин. Видеоархив"
    INDEX 01 22:05:64
  TRACK 97 AUDIO
    TITLE "00:22:19.48254"
    PERFORMER "Владимир Михайлович Зазнобин. Видеоархив"
    INDEX 01 22:19:36
  TRACK 98 AUDIO
    TITLE "00:22:31.88937"
    PERFORMER "Владимир Михайлович Зазнобин. Видеоархив"
    INDEX 01 22:31:67
  TRACK 99 AUDIO
    TITLE "00:22:45.04617"
    PERFORMER "Владимир Михайлович Зазнобин. Видеоархив"
    INDEX 01 22:45:03
  TRACK 100 AUDIO
    TITLE "00:22:57.50594"
    PERFORMER "Владимир Михайлович Зазнобин. Видеоархив"
    INDEX 01 22:57:38
  TRACK 101 AUDIO
    TITLE "00:23:10.31537"
    PERFORMER "Владимир Михайлович Зазнобин. Видеоархив"
    INDEX 01 23:10:24
  TRACK 102 AUDIO
    TITLE "00:23:24.10517"
    PERFORMER "Владимир Михайлович Зазнобин. Видеоархив"
    INDEX 01 23:24:08
  TRACK 103 AUDIO
    TITLE "00:23:39.22546"
    PERFORMER "Владимир Михайлович Зазнобин. Видеоархив"
    INDEX 01 23:39:17
  TRACK 104 AUDIO
    TITLE "00:23:53.21311"
    PERFORMER "Владимир Михайлович Зазнобин. Видеоархив"
    INDEX 01 23:53:16
  TRACK 105 AUDIO
    TITLE "00:24:07.01544"
    PERFORMER "Владимир Михайлович Зазнобин. Видеоархив"
    INDEX 01 24:07:01
  TRACK 106 AUDIO
    TITLE "00:24:20.41932"
    PERFORMER "Владимир Михайлович Зазнобин. Видеоархив"
    INDEX 01 24:20:31
  TRACK 107 AUDIO
    TITLE "00:24:33.35508"
    PERFORMER "Владимир Михайлович Зазнобин. Видеоархив"
    INDEX 01 24:33:27
  TRACK 108 AUDIO
    TITLE "00:24:47.40122"
    PERFORMER "Владимир Михайлович Зазнобин. Видеоархив"
    INDEX 01 24:47:30
  TRACK 109 AUDIO
    TITLE "00:25:00.99968"
    PERFORMER "Владимир Михайлович Зазнобин. Видеоархив"
    INDEX 01 25:01:00
  TRACK 110 AUDIO
    TITLE "00:25:14.63345"
    PERFORMER "Владимир Михайлович Зазнобин. Видеоархив"
    INDEX 01 25:14:48
  TRACK 111 AUDIO
    TITLE "00:25:28.69444"
    PERFORMER "Владимир Михайлович Зазнобин. Видеоархив"
    INDEX 01 25:28:52
  TRACK 112 AUDIO
    TITLE "00:25:41.28283"
    PERFORMER "Владимир Михайлович Зазнобин. Видеоархив"
    INDEX 01 25:41:21
  TRACK 113 AUDIO
    TITLE "00:25:55.45435"
    PERFORMER "Владимир Михайлович Зазнобин. Видеоархив"
    INDEX 01 25:55:34
  TRACK 114 AUDIO
    TITLE "00:26:08.85916"
    PERFORMER "Владимир Михайлович Зазнобин. Видеоархив"
    INDEX 01 26:08:64
  TRACK 115 AUDIO
    TITLE "00:26:23.38875"
    PERFORMER "Владимир Михайлович Зазнобин. Видеоархив"
    INDEX 01 26:23:29
  TRACK 116 AUDIO
    TITLE "00:26:38.83646"
    PERFORMER "Владимир Михайлович Зазнобин. Видеоархив"
    INDEX 01 26:38:63
  TRACK 117 AUDIO
    TITLE "00:26:51.88646"
    PERFORMER "Владимир Михайлович Зазнобин. Видеоархив"
    INDEX 01 26:51:66
  TRACK 118 AUDIO
    TITLE "00:27:06.94361"
    PERFORMER "Владимир Михайлович Зазнобин. Видеоархив"
    INDEX 01 27:06:71
  TRACK 119 AUDIO
    TITLE "00:27:20.66374"
    PERFORMER "Владимир Михайлович Зазнобин. Видеоархив"
    INDEX 01 27:20:50
  TRACK 120 AUDIO
    TITLE "00:27:35.02753"
    PERFORMER "Владимир Михайлович Зазнобин. Видеоархив"
    INDEX 01 27:35:02
  TRACK 121 AUDIO
    TITLE "00:27:49.15912"
    PERFORMER "Владимир Михайлович Зазнобин. Видеоархив"
    INDEX 01 27:49:12
  TRACK 122 AUDIO
    TITLE "00:28:03.08823"
    PERFORMER "Владимир Михайлович Зазнобин. Видеоархив"
    INDEX 01 28:03:07
  TRACK 123 AUDIO
    TITLE "00:28:16.18884"
    PERFORMER "Владимир Михайлович Зазнобин. Видеоархив"
    INDEX 01 28:16:14
  TRACK 124 AUDIO
    TITLE "00:28:28.91193"
    PERFORMER "Владимир Михайлович Зазнобин. Видеоархив"
    INDEX 01 28:28:68
  TRACK 125 AUDIO
    TITLE "00:28:41.89830"
    PERFORMER "Владимир Михайлович Зазнобин. Видеоархив"
    INDEX 01 28:41:67
  TRACK 126 AUDIO
    TITLE "00:28:54.78066"
    PERFORMER "Владимир Михайлович Зазнобин. Видеоархив"
    INDEX 01 28:54:59
  TRACK 127 AUDIO
    TITLE "00:29:10.82465"
    PERFORMER "Владимир Михайлович Зазнобин. Видеоархив"
    INDEX 01 29:10:62
  TRACK 128 AUDIO
    TITLE "00:29:24.13426"
    PERFORMER "Владимир Михайлович Зазнобин. Видеоархив"
    INDEX 01 29:24:10
  TRACK 129 AUDIO
    TITLE "00:29:37.12063"
    PERFORMER "Владимир Михайлович Зазнобин. Видеоархив"
    INDEX 01 29:37:09
  TRACK 130 AUDIO
    TITLE "00:29:52.47825"
    PERFORMER "Владимир Михайлович Зазнобин. Видеоархив"
    INDEX 01 29:52:36
  TRACK 131 AUDIO
    TITLE "00:30:05.25379"
    PERFORMER "Владимир Михайлович Зазнобин. Видеоархив"
    INDEX 01 30:05:19
  TRACK 132 AUDIO
    TITLE "00:30:18.51696"
    PERFORMER "Владимир Михайлович Зазнобин. Видеоархив"
    INDEX 01 30:18:39
  TRACK 133 AUDIO
    TITLE "00:30:33.40971"
    PERFORMER "Владимир Михайлович Зазнобин. Видеоархив"
    INDEX 01 30:33:31
  TRACK 134 AUDIO
    TITLE "00:30:49.17413"
    PERFORMER "Владимир Михайлович Зазнобин. Видеоархив"
    INDEX 01 30:49:13
  TRACK 135 AUDIO
    TITLE "00:31:03.60803"
    PERFORMER "Владимир Михайлович Зазнобин. Видеоархив"
    INDEX 01 31:03:46
  TRACK 136 AUDIO
    TITLE "00:31:18.71302"
    PERFORMER "Владимир Михайлович Зазнобин. Видеоархив"
    INDEX 01 31:18:53
  TRACK 137 AUDIO
    TITLE "00:31:32.24553"
    PERFORMER "Владимир Михайлович Зазнобин. Видеоархив"
    INDEX 01 31:32:18
  TRACK 138 AUDIO
    TITLE "00:31:45.17619"
    PERFORMER "Владимир Михайлович Зазнобин. Видеоархив"
    INDEX 01 31:45:13
  TRACK 139 AUDIO
    TITLE "00:31:58.51875"
    PERFORMER "Владимир Михайлович Зазнобин. Видеоархив"
    INDEX 01 31:58:39
  TRACK 140 AUDIO
    TITLE "00:32:12.12000"
    PERFORMER "Владимир Михайлович Зазнобин. Видеоархив"
    INDEX 01 32:12:09
  TRACK 141 AUDIO
    TITLE "00:32:25.49091"
    PERFORMER "Владимир Михайлович Зазнобин. Видеоархив"
    INDEX 01 32:25:37
  TRACK 142 AUDIO
    TITLE "00:32:39.57422"
    PERFORMER "Владимир Михайлович Зазнобин. Видеоархив"
    INDEX 01 32:39:43
  TRACK 143 AUDIO
    TITLE "00:32:52.81463"
    PERFORMER "Владимир Михайлович Зазнобин. Видеоархив"
    INDEX 01 32:52:61
  TRACK 144 AUDIO
    TITLE "00:33:05.93800"
    PERFORMER "Владимир Михайлович Зазнобин. Видеоархив"
    INDEX 01 33:05:70
  TRACK 145 AUDIO
    TITLE "00:33:19.75381"
    PERFORMER "Владимир Михайлович Зазнобин. Видеоархив"
    INDEX 01 33:19:57
  TRACK 146 AUDIO
    TITLE "00:33:33.43864"
    PERFORMER "Владимир Михайлович Зазнобин. Видеоархив"
    INDEX 01 33:33:33
  TRACK 147 AUDIO
    TITLE "00:33:46.91172"
    PERFORMER "Владимир Михайлович Зазнобин. Видеоархив"
    INDEX 01 33:46:68
  TRACK 148 AUDIO
    TITLE "00:34:00.11637"
    PERFORMER "Владимир Михайлович Зазнобин. Видеоархив"
    INDEX 01 34:00:09
  TRACK 149 AUDIO
    TITLE "00:34:15.64766"
    PERFORMER "Владимир Михайлович Зазнобин. Видеоархив"
    INDEX 01 34:15:49
  TRACK 150 AUDIO
    TITLE "00:34:30.95279"
    PERFORMER "Владимир Михайлович Зазнобин. Видеоархив"
    INDEX 01 34:30:71
  TRACK 151 AUDIO
    TITLE "00:34:43.79891"
    PERFORMER "Владимир Михайлович Зазнобин. Видеоархив"
    INDEX 01 34:43:60
  TRACK 152 AUDIO
    TITLE "00:34:57.80465"
    PERFORMER "Владимир Михайлович Зазнобин. Видеоархив"
    INDEX 01 34:57:60
  TRACK 153 AUDIO
    TITLE "00:35:11.13424"
    PERFORMER "Владимир Михайлович Зазнобин. Видеоархив"
    INDEX 01 35:11:10
  TRACK 154 AUDIO
    TITLE "00:35:23.72635"
    PERFORMER "Владимир Михайлович Зазнобин. Видеоархив"
    INDEX 01 35:23:54
  TRACK 155 AUDIO
    TITLE "00:35:36.09787"
    PERFORMER "Владимир Михайлович Зазнобин. Видеоархив"
    INDEX 01 35:36:07
  TRACK 156 AUDIO
    TITLE "00:35:49.18408"
    PERFORMER "Владимир Михайлович Зазнобин. Видеоархив"
    INDEX 01 35:49:14
  TRACK 157 AUDIO
    TITLE "00:36:01.68565"
    PERFORMER "Владимир Михайлович Зазнобин. Видеоархив"
    INDEX 01 36:01:51
  TRACK 158 AUDIO
    TITLE "00:36:18.27900"
    PERFORMER "Владимир Михайлович Зазнобин. Видеоархив"
    INDEX 01 36:18:21
  TRACK 159 AUDIO
    TITLE "00:36:31.68800"
    PERFORMER "Владимир Михайлович Зазнобин. Видеоархив"
    INDEX 01 36:31:52
  TRACK 160 AUDIO
    TITLE "00:36:44.83553"
    PERFORMER "Владимир Михайлович Зазнобин. Видеоархив"
    INDEX 01 36:44:63
  TRACK 161 AUDIO
    TITLE "00:36:57.33941"
    PERFORMER "Владимир Михайлович Зазнобин. Видеоархив"
    INDEX 01 36:57:25
  TRACK 162 AUDIO
    TITLE "00:37:10.69964"
    PERFORMER "Владимир Михайлович Зазнобин. Видеоархив"
    INDEX 01 37:10:52
  TRACK 163 AUDIO
    TITLE "00:37:25.02812"
    PERFORMER "Владимир Михайлович Зазнобин. Видеоархив"
    INDEX 01 37:25:02
  TRACK 164 AUDIO
    TITLE "00:37:39.43000"
    PERFORMER "Владимир Михайлович Зазнобин. Видеоархив"
    INDEX 01 37:39:32
  TRACK 165 AUDIO
    TITLE "00:37:54.52569"
    PERFORMER "Владимир Михайлович Зазнобин. Видеоархив"
    INDEX 01 37:54:39
  TRACK 166 AUDIO
    TITLE "00:38:09.19782"
    PERFORMER "Владимир Михайлович Зазнобин. Видеоархив"
    INDEX 01 38:09:15
  TRACK 167 AUDIO
    TITLE "00:38:21.99102"
    PERFORMER "Владимир Михайлович Зазнобин. Видеоархив"
    INDEX 01 38:21:74
  TRACK 168 AUDIO
    TITLE "00:38:34.57710"
    PERFORMER "Владимир Михайлович Зазнобин. Видеоархив"
    INDEX 01 38:34:43
  TRACK 169 AUDIO
    TITLE "00:38:47.89553"
    PERFORMER "Владимир Михайлович Зазнобин. Видеоархив"
    INDEX 01 38:47:67
  TRACK 170 AUDIO
    TITLE "00:39:05.63224"
    PERFORMER "Владимир Михайлович Зазнобин. Видеоархив"
    INDEX 01 39:05:47
  TRACK 171 AUDIO
    TITLE "00:39:19.73227"
    PERFORMER "Владимир Михайлович Зазнобин. Видеоархив"
    INDEX 01 39:19:55
  TRACK 172 AUDIO
    TITLE "00:39:34.57764"
    PERFORMER "Владимир Михайлович Зазнобин. Видеоархив"
    INDEX 01 39:34:43
  TRACK 173 AUDIO
    TITLE "00:39:50.76651"
    PERFORMER "Владимир Михайлович Зазнобин. Видеоархив"
    INDEX 01 39:50:57
  TRACK 174 AUDIO
    TITLE "00:40:04.08494"
    PERFORMER "Владимир Михайлович Зазнобин. Видеоархив"
    INDEX 01 40:04:06
  TRACK 175 AUDIO
    TITLE "00:40:16.80152"
    PERFORMER "Владимир Михайлович Зазнобин. Видеоархив"
    INDEX 01 40:16:60
  TRACK 176 AUDIO
    TITLE "00:40:30.65029"
    PERFORMER "Владимир Михайлович Зазнобин. Видеоархив"
    INDEX 01 40:30:49
  TRACK 177 AUDIO
    TITLE "00:40:44.07227"
    PERFORMER "Владимир Михайлович Зазнобин. Видеоархив"
    INDEX 01 40:44:05
  TRACK 178 AUDIO
    TITLE "00:40:57.29317"
    PERFORMER "Владимир Михайлович Зазнобин. Видеоархив"
    INDEX 01 40:57:22
  TRACK 179 AUDIO
    TITLE "00:41:09.98932"
    PERFORMER "Владимир Михайлович Зазнобин. Видеоархив"
    INDEX 01 41:09:74
  TRACK 180 AUDIO
    TITLE "00:41:23.17957"
    PERFORMER "Владимир Михайлович Зазнобин. Видеоархив"
    INDEX 01 41:23:13
  TRACK 181 AUDIO
    TITLE "00:41:36.19660"
    PERFORMER "Владимир Михайлович Зазнобин. Видеоархив"
    INDEX 01 41:36:15
  TRACK 182 AUDIO
    TITLE "00:41:49.22478"
    PERFORMER "Владимир Михайлович Зазнобин. Видеоархив"
    INDEX 01 41:49:17
  TRACK 183 AUDIO
    TITLE "00:42:02.01426"
    PERFORMER "Владимир Михайлович Зазнобин. Видеоархив"
    INDEX 01 42:02:01
  TRACK 184 AUDIO
    TITLE "00:42:14.99601"
    PERFORMER "Владимир Михайлович Зазнобин. Видеоархив"
    INDEX 01 42:15:00
  TRACK 185 AUDIO
    TITLE "00:42:28.28796"
    PERFORMER "Владимир Михайлович Зазнобин. Видеоархив"
    INDEX 01 42:28:22
  TRACK 186 AUDIO
    TITLE "00:42:41.07930"
    PERFORMER "Владимир Михайлович Зазнобин. Видеоархив"
    INDEX 01 42:41:06
  TRACK 187 AUDIO
    TITLE "00:42:55.06971"
    PERFORMER "Владимир Михайлович Зазнобин. Видеоархив"
    INDEX 01 42:55:05
  TRACK 188 AUDIO
    TITLE "00:43:10.10503"
    PERFORMER "Владимир Михайлович Зазнобин. Видеоархив"
    INDEX 01 43:10:08
  TRACK 189 AUDIO
    TITLE "00:43:23.86649"
    PERFORMER "Владимир Михайлович Зазнобин. Видеоархив"
    INDEX 01 43:23:65
  TRACK 190 AUDIO
    TITLE "00:43:37.58941"
    PERFORMER "Владимир Михайлович Зазнобин. Видеоархив"
    INDEX 01 43:37:44
  TRACK 191 AUDIO
    TITLE "00:43:50.72347"
    PERFORMER "Владимир Михайлович Зазнобин. Видеоархив"
    INDEX 01 43:50:54
  TRACK 192 AUDIO
    TITLE "00:44:04.30057"
    PERFORMER "Владимир Михайлович Зазнобин. Видеоархив"
    INDEX 01 44:04:23
  TRACK 193 AUDIO
    TITLE "00:44:17.86839"
    PERFORMER "Владимир Михайлович Зазнобин. Видеоархив"
    INDEX 01 44:17:65
  TRACK 194 AUDIO
    TITLE "00:44:32.63946"
    PERFORMER "Владимир Михайлович Зазнобин. Видеоархив"
    INDEX 01 44:32:48
  TRACK 195 AUDIO
    TITLE "00:44:45.44147"
    PERFORMER "Владимир Михайлович Зазнобин. Видеоархив"
    INDEX 01 44:45:33
  TRACK 196 AUDIO
    TITLE "00:44:59.64737"
    PERFORMER "Владимир Михайлович Зазнобин. Видеоархив"
    INDEX 01 44:59:49
  TRACK 197 AUDIO
    TITLE "00:45:14.79134"
    PERFORMER "Владимир Михайлович Зазнобин. Видеоархив"
    INDEX 01 45:14:59
  TRACK 198 AUDIO
    TITLE "00:45:27.29290"
    PERFORMER "Владимир Михайлович Зазнобин. Видеоархив"
    INDEX 01 45:27:22
  TRACK 199 AUDIO
    TITLE "00:45:40.74832"
    PERFORMER "Владимир Михайлович Зазнобин. Видеоархив"
    INDEX 01 45:40:56
  TRACK 200 AUDIO
    TITLE "00:45:53.64370"
    PERFORMER "Владимир Михайлович Зазнобин. Видеоархив"
    INDEX 01 45:53:48
  TRACK 201 AUDIO
    TITLE "00:46:06.63238"
    PERFORMER "Владимир Михайлович Зазнобин. Видеоархив"
    INDEX 01 46:06:47
  TRACK 202 AUDIO
    TITLE "00:46:19.76925"
    PERFORMER "Владимир Михайлович Зазнобин. Видеоархив"
    INDEX 01 46:19:58
  TRACK 203 AUDIO
    TITLE "00:46:32.35485"
    PERFORMER "Владимир Михайлович Зазнобин. Видеоархив"
    INDEX 01 46:32:27
  TRACK 204 AUDIO
    TITLE "00:46:47.88429"
    PERFORMER "Владимир Михайлович Зазнобин. Видеоархив"
    INDEX 01 46:47:66
  TRACK 205 AUDIO
    TITLE "00:47:00.53444"
    PERFORMER "Владимир Михайлович Зазнобин. Видеоархив"
    INDEX 01 47:00:40
  TRACK 206 AUDIO
    TITLE "00:47:14.09576"
    PERFORMER "Владимир Михайлович Зазнобин. Видеоархив"
    INDEX 01 47:14:07
  TRACK 207 AUDIO
    TITLE "00:47:27.15320"
    PERFORMER "Владимир Михайлович Зазнобин. Видеоархив"
    INDEX 01 47:27:11
  TRACK 208 AUDIO
    TITLE "00:47:42.99376"
    PERFORMER "Владимир Михайлович Зазнобин. Видеоархив"
    INDEX 01 47:43:00
  TRACK 209 AUDIO
    TITLE "00:47:57.85399"
    PERFORMER "Владимир Михайлович Зазнобин. Видеоархив"
    INDEX 01 47:57:64
  TRACK 210 AUDIO
    TITLE "00:48:11.89317"
    PERFORMER "Владимир Михайлович Зазнобин. Видеоархив"
    INDEX 01 48:11:67
  TRACK 211 AUDIO
    TITLE "00:48:25.65324"
    PERFORMER "Владимир Михайлович Зазнобин. Видеоархив"
    INDEX 01 48:25:49
  TRACK 212 AUDIO
    TITLE "00:48:38.61039"
    PERFORMER "Владимир Михайлович Зазнобин. Видеоархив"
    INDEX 01 48:38:46
  TRACK 213 AUDIO
    TITLE "00:48:51.70265"
    PERFORMER "Владимир Михайлович Зазнобин. Видеоархив"
    INDEX 01 48:51:53
  TRACK 214 AUDIO
    TITLE "00:49:05.66240"
    PERFORMER "Владимир Михайлович Зазнобин. Видеоархив"
    INDEX 01 49:05:50
  TRACK 215 AUDIO
    TITLE "00:49:19.37837"
    PERFORMER "Владимир Михайлович Зазнобин. Видеоархив"
    INDEX 01 49:19:28
  TRACK 216 AUDIO
    TITLE "00:49:33.28658"
    PERFORMER "Владимир Михайлович Зазнобин. Видеоархив"
    INDEX 01 49:33:21
  TRACK 217 AUDIO
    TITLE "00:49:46.79029"
    PERFORMER "Владимир Михайлович Зазнобин. Видеоархив"
    INDEX 01 49:46:59
  TRACK 218 AUDIO
    TITLE "00:49:59.22592"
    PERFORMER "Владимир Михайлович Зазнобин. Видеоархив"
    INDEX 01 49:59:17
  TRACK 219 AUDIO
    TITLE "00:50:12.13288"
    PERFORMER "Владимир Михайлович Зазнобин. Видеоархив"
    INDEX 01 50:12:10
  TRACK 220 AUDIO
    TITLE "00:50:24.82252"
    PERFORMER "Владимир Михайлович Зазнобин. Видеоархив"
    INDEX 01 50:24:62
  TRACK 221 AUDIO
    TITLE "00:50:39.19141"
    PERFORMER "Владимир Михайлович Зазнобин. Видеоархив"
    INDEX 01 50:39:14
  TRACK 222 AUDIO
    TITLE "00:50:52.07796"
    PERFORMER "Владимир Михайлович Зазнобин. Видеоархив"
    INDEX 01 50:52:06
  TRACK 223 AUDIO
    TITLE "00:51:05.28120"
    PERFORMER "Владимир Михайлович Зазнобин. Видеоархив"
    INDEX 01 51:05:21
  TRACK 224 AUDIO
    TITLE "00:51:21.25229"
    PERFORMER "Владимир Михайлович Зазнобин. Видеоархив"
    INDEX 01 51:21:19
  TRACK 225 AUDIO
    TITLE "00:51:34.76066"
    PERFORMER "Владимир Михайлович Зазнобин. Видеоархив"
    INDEX 01 51:34:57
  TRACK 226 AUDIO
    TITLE "00:51:47.80927"
    PERFORMER "Владимир Михайлович Зазнобин. Видеоархив"
    INDEX 01 51:47:61
  TRACK 227 AUDIO
    TITLE "00:52:01.50989"
    PERFORMER "Владимир Михайлович Зазнобин. Видеоархив"
    INDEX 01 52:01:38
  TRACK 228 AUDIO
    TITLE "00:52:15.27694"
    PERFORMER "Владимир Михайлович Зазнобин. Видеоархив"
    INDEX 01 52:15:21
  TRACK 229 AUDIO
    TITLE "00:52:30.23005"
    PERFORMER "Владимир Михайлович Зазнобин. Видеоархив"
    INDEX 01 52:30:17
  TRACK 230 AUDIO
    TITLE "00:52:43.95576"
    PERFORMER "Владимир Михайлович Зазнобин. Видеоархив"
    INDEX 01 52:43:72
  TRACK 231 AUDIO
    TITLE "00:52:56.66349"
    PERFORMER "Владимир Михайлович Зазнобин. Видеоархив"
    INDEX 01 52:56:50
  TRACK 232 AUDIO
    TITLE "00:53:09.82914"
    PERFORMER "Владимир Михайлович Зазнобин. Видеоархив"
    INDEX 01 53:09:62
  TRACK 233 AUDIO
    TITLE "00:53:22.87961"
    PERFORMER "Владимир Михайлович Зазнобин. Видеоархив"
    INDEX 01 53:22:66
  TRACK 234 AUDIO
    TITLE "00:53:36.21104"
    PERFORMER "Владимир Михайлович Зазнобин. Видеоархив"
    INDEX 01 53:36:16
  TRACK 235 AUDIO
    TITLE "00:53:50.30966"
    PERFORMER "Владимир Михайлович Зазнобин. Видеоархив"
    INDEX 01 53:50:23
  TRACK 236 AUDIO
    TITLE "00:54:04.04744"
    PERFORMER "Владимир Михайлович Зазнобин. Видеоархив"
    INDEX 01 54:04:04
  TRACK 237 AUDIO
    TITLE "00:54:18.74422"
    PERFORMER "Владимир Михайлович Зазнобин. Видеоархив"
    INDEX 01 54:18:56
  TRACK 238 AUDIO
    TITLE "00:54:31.93726"
    PERFORMER "Владимир Михайлович Зазнобин. Видеоархив"
    INDEX 01 54:31:70
  TRACK 239 AUDIO
    TITLE "00:54:44.33757"
    PERFORMER "Владимир Михайлович Зазнобин. Видеоархив"
    INDEX 01 54:44:25
  TRACK 240 AUDIO
    TITLE "00:54:57.35739"
    PERFORMER "Владимир Михайлович Зазнобин. Видеоархив"
    INDEX 01 54:57:27
  TRACK 241 AUDIO
    TITLE "00:55:12.00957"
    PERFORMER "Владимир Михайлович Зазнобин. Видеоархив"
    INDEX 01 55:12:01
  TRACK 242 AUDIO
    TITLE "00:55:26.00834"
    PERFORMER "Владимир Михайлович Зазнобин. Видеоархив"
    INDEX 01 55:26:01
  TRACK 243 AUDIO
    TITLE "00:55:40.58435"
    PERFORMER "Владимир Михайлович Зазнобин. Видеоархив"
    INDEX 01 55:40:44
  TRACK 244 AUDIO
    TITLE "00:55:53.57492"
    PERFORMER "Владимир Михайлович Зазнобин. Видеоархив"
    INDEX 01 55:53:43
  TRACK 245 AUDIO
    TITLE "00:56:09.05932"
    PERFORMER "Владимир Михайлович Зазнобин. Видеоархив"
    INDEX 01 56:09:04
  TRACK 246 AUDIO
    TITLE "00:56:22.31830"
    PERFORMER "Владимир Михайлович Зазнобин. Видеоархив"
    INDEX 01 56:22:24
  TRACK 247 AUDIO
    TITLE "00:56:35.34463"
    PERFORMER "Владимир Михайлович Зазнобин. Видеоархив"
    INDEX 01 56:35:26
  TRACK 248 AUDIO
    TITLE "00:56:50.98086"
    PERFORMER "Владимир Михайлович Зазнобин. Видеоархив"
    INDEX 01 56:50:74
  TRACK 249 AUDIO
    TITLE "00:57:05.30054"
    PERFORMER "Владимир Михайлович Зазнобин. Видеоархив"
    INDEX 01 57:05:23
  TRACK 250 AUDIO
    TITLE "00:57:21.98075"
    PERFORMER "Владимир Михайлович Зазнобин. Видеоархив"
    INDEX 01 57:21:74
  TRACK 251 AUDIO
    TITLE "00:57:35.66420"
    PERFORMER "Владимир Михайлович Зазнобин. Видеоархив"
    INDEX 01 57:35:50
  TRACK 252 AUDIO
    TITLE "00:57:48.03340"
    PERFORMER "Владимир Михайлович Зазнобин. Видеоархив"
    INDEX 01 57:48:03
  TRACK 253 AUDIO
    TITLE "00:58:00.69703"
    PERFORMER "Владимир Михайлович Зазнобин. Видеоархив"
    INDEX 01 58:00:52
  TRACK 254 AUDIO
    TITLE "00:58:14.01268"
    PERFORMER "Владимир Михайлович Зазнобин. Видеоархив"
    INDEX 01 58:14:01
  TRACK 255 AUDIO
    TITLE "00:58:27.29580"
    PERFORMER "Владимир Михайлович Зазнобин. Видеоархив"
    INDEX 01 58:27:22
  TRACK 256 AUDIO
    TITLE "00:58:39.91671"
    PERFORMER "Владимир Михайлович Зазнобин. Видеоархив"
    INDEX 01 58:39:69
  TRACK 257 AUDIO
    TITLE "00:58:53.48961"
    PERFORMER "Владимир Михайлович Зазнобин. Видеоархив"
    INDEX 01 58:53:37
  TRACK 258 AUDIO
    TITLE "00:59:06.22104"
    PERFORMER "Владимир Михайлович Зазнобин. Видеоархив"
    INDEX 01 59:06:17
  TRACK 259 AUDIO
    TITLE "00:59:18.88236"
    PERFORMER "Владимир Михайлович Зазнобин. Видеоархив"
    INDEX 01 59:18:66
  TRACK 260 AUDIO
    TITLE "00:59:32.06796"
    PERFORMER "Владимир Михайлович Зазнобин. Видеоархив"
    INDEX 01 59:32:05
  TRACK 261 AUDIO
    TITLE "00:59:47.34524"
    PERFORMER "Владимир Михайлович Зазнобин. Видеоархив"
    INDEX 01 59:47:26
  TRACK 262 AUDIO
    TITLE "01:00:01.13873"
    PERFORMER "Владимир Михайлович Зазнобин. Видеоархив"
    INDEX 01 60:01:10
  TRACK 263 AUDIO
    TITLE "01:00:14.05406"
    PERFORMER "Владимир Михайлович Зазнобин. Видеоархив"
    INDEX 01 60:14:04
  TRACK 264 AUDIO
    TITLE "01:00:27.82342"
    PERFORMER "Владимир Михайлович Зазнобин. Видеоархив"
    INDEX 01 60:27:62
  TRACK 265 AUDIO
    TITLE "01:00:40.44664"
    PERFORMER "Владимир Михайлович Зазнобин. Видеоархив"
    INDEX 01 60:40:33
  TRACK 266 AUDIO
    TITLE "01:00:54.03955"
    PERFORMER "Владимир Михайлович Зазнобин. Видеоархив"
    INDEX 01 60:54:03
  TRACK 267 AUDIO
    TITLE "01:01:08.45209"
    PERFORMER "Владимир Михайлович Зазнобин. Видеоархив"
    INDEX 01 61:08:34
  TRACK 268 AUDIO
    TITLE "01:01:22.26558"
    PERFORMER "Владимир Михайлович Зазнобин. Видеоархив"
    INDEX 01 61:22:20
  TRACK 269 AUDIO
    TITLE "01:01:35.96991"
    PERFORMER "Владимир Михайлович Зазнобин. Видеоархив"
    INDEX 01 61:35:73
  TRACK 270 AUDIO
    TITLE "01:01:48.84810"
    PERFORMER "Владимир Михайлович Зазнобин. Видеоархив"
    INDEX 01 61:48:64
  TRACK 271 AUDIO
    TITLE "01:02:01.41839"
    PERFORMER "Владимир Михайлович Зазнобин. Видеоархив"
    INDEX 01 62:01:31
  TRACK 272 AUDIO
    TITLE "01:02:13.83635"
    PERFORMER "Владимир Михайлович Зазнобин. Видеоархив"
    INDEX 01 62:13:63
  TRACK 273 AUDIO
    TITLE "01:02:26.70569"
    PERFORMER "Владимир Михайлович Зазнобин. Видеоархив"
    INDEX 01 62:26:53
  TRACK 274 AUDIO
    TITLE "01:02:40.33526"
    PERFORMER "Владимир Михайлович Зазнобин. Видеоархив"
    INDEX 01 62:40:25
  TRACK 275 AUDIO
    TITLE "01:02:54.75571"
    PERFORMER "Владимир Михайлович Зазнобин. Видеоархив"
    INDEX 01 62:54:57
  TRACK 276 AUDIO
    TITLE "01:03:07.79179"
    PERFORMER "Владимир Михайлович Зазнобин. Видеоархив"
    INDEX 01 63:07:59
  TRACK 277 AUDIO
    TITLE "01:03:23.30218"
    PERFORMER "Владимир Михайлович Зазнобин. Видеоархив"
    INDEX 01 63:23:23
  TRACK 278 AUDIO
    TITLE "01:03:38.20701"
    PERFORMER "Владимир Михайлович Зазнобин. Видеоархив"
    INDEX 01 63:38:16
  TRACK 279 AUDIO
    TITLE "01:03:51.62900"
    PERFORMER "Владимир Михайлович Зазнобин. Видеоархив"
    INDEX 01 63:51:47
  TRACK 280 AUDIO
    TITLE "01:04:05.62685"
    PERFORMER "Владимир Михайлович Зазнобин. Видеоархив"
    INDEX 01 64:05:47
  TRACK 281 AUDIO
    TITLE "01:04:19.36415"
    PERFORMER "Владимир Михайлович Зазнобин. Видеоархив"
    INDEX 01 64:19:27
  TRACK 282 AUDIO
    TITLE "01:04:32.13367"
    PERFORMER "Владимир Михайлович Зазнобин. Видеоархив"
    INDEX 01 64:32:10
  TRACK 283 AUDIO
    TITLE "01:04:45.68011"
    PERFORMER "Владимир Михайлович Зазнобин. Видеоархив"
    INDEX 01 64:45:51
  TRACK 284 AUDIO
    TITLE "01:04:59.03986"
    PERFORMER "Владимир Михайлович Зазнобин. Видеоархив"
    INDEX 01 64:59:03
  TRACK 285 AUDIO
    TITLE "01:05:12.25615"
    PERFORMER "Владимир Михайлович Зазнобин. Видеоархив"
    INDEX 01 65:12:19
  TRACK 286 AUDIO
    TITLE "01:05:24.90814"
    PERFORMER "Владимир Михайлович Зазнобин. Видеоархив"
    INDEX 01 65:24:68
  TRACK 287 AUDIO
    TITLE "01:05:37.53834"
    PERFORMER "Владимир Михайлович Зазнобин. Видеоархив"
    INDEX 01 65:37:40
  TRACK 288 AUDIO
    TITLE "01:05:50.26605"
    PERFORMER "Владимир Михайлович Зазнобин. Видеоархив"
    INDEX 01 65:50:20
  TRACK 289 AUDIO
    TITLE "01:06:03.52458"
    PERFORMER "Владимир Михайлович Зазнобин. Видеоархив"
    INDEX 01 66:03:39
  TRACK 290 AUDIO
    TITLE "01:06:16.92846"
    PERFORMER "Владимир Михайлович Зазнобин. Видеоархив"
    INDEX 01 66:16:70
  TRACK 291 AUDIO
    TITLE "01:06:32.80991"
    PERFORMER "Владимир Михайлович Зазнобин. Видеоархив"
    INDEX 01 66:32:61
  TRACK 292 AUDIO
    TITLE "01:06:46.35311"
    PERFORMER "Владимир Михайлович Зазнобин. Видеоархив"
    INDEX 01 66:46:26
  TRACK 293 AUDIO
    TITLE "01:06:59.28887"
    PERFORMER "Владимир Михайлович Зазнобин. Видеоархив"
    INDEX 01 66:59:22
  TRACK 294 AUDIO
    TITLE "01:07:12.80560"
    PERFORMER "Владимир Михайлович Зазнобин. Видеоархив"
    INDEX 01 67:12:60
  TRACK 295 AUDIO
    TITLE "01:07:26.45374"
    PERFORMER "Владимир Михайлович Зазнобин. Видеоархив"
    INDEX 01 67:26:34
  TRACK 296 AUDIO
    TITLE "01:07:40.77805"
    PERFORMER "Владимир Михайлович Зазнобин. Видеоархив"
    INDEX 01 67:40:58
  TRACK 297 AUDIO
    TITLE "01:07:54.21073"
    PERFORMER "Владимир Михайлович Зазнобин. Видеоархив"
    INDEX 01 67:54:16
  TRACK 298 AUDIO
    TITLE "01:08:07.36059"
    PERFORMER "Владимир Михайлович Зазнобин. Видеоархив"
    INDEX 01 68:07:27
  TRACK 299 AUDIO
    TITLE "01:08:19.91091"
    PERFORMER "Владимир Михайлович Зазнобин. Видеоархив"
    INDEX 01 68:19:68
  TRACK 300 AUDIO
    TITLE "01:08:32.62980"
    PERFORMER "Владимир Михайлович Зазнобин. Видеоархив"
    INDEX 01 68:32:47
  TRACK 301 AUDIO
    TITLE "01:08:45.75782"
    PERFORMER "Владимир Михайлович Зазнобин. Видеоархив"
    INDEX 01 68:45:57
  TRACK 302 AUDIO
    TITLE "01:09:01.78649"
    PERFORMER "Владимир Михайлович Зазнобин. Видеоархив"
    INDEX 01 69:01:59
  TRACK 303 AUDIO
    TITLE "01:09:16.05599"
    PERFORMER "Владимир Михайлович Зазнобин. Видеоархив"
    INDEX 01 69:16:04
  TRACK 304 AUDIO
    TITLE "01:09:29.21884"
    PERFORMER "Владимир Михайлович Зазнобин. Видеоархив"
    INDEX 01 69:29:16
  TRACK 305 AUDIO
    TITLE "01:09:43.11406"
    PERFORMER "Владимир Михайлович Зазнобин. Видеоархив"
    INDEX 01 69:43:09
  TRACK 306 AUDIO
    TITLE "01:09:58.40247"
    PERFORMER "Владимир Михайлович Зазнобин. Видеоархив"
    INDEX 01 69:58:30
  TRACK 307 AUDIO
    TITLE "01:10:11.63451"
    PERFORMER "Владимир Михайлович Зазнобин. Видеоархив"
    INDEX 01 70:11:48
  TRACK 308 AUDIO
    TITLE "01:10:26.86070"
    PERFORMER "Владимир Михайлович Зазнобин. Видеоархив"
    INDEX 01 70:26:65
  TRACK 309 AUDIO
    TITLE "01:10:40.26320"
    PERFORMER "Владимир Михайлович Зазнобин. Видеоархив"
    INDEX 01 70:40:20
  TRACK 310 AUDIO
    TITLE "01:10:55.16707"
    PERFORMER "Владимир Михайлович Зазнобин. Видеоархив"
    INDEX 01 70:55:13
  TRACK 311 AUDIO
    TITLE "01:11:09.76540"
    PERFORMER "Владимир Михайлович Зазнобин. Видеоархив"
    INDEX 01 71:09:57
  TRACK 312 AUDIO
    TITLE "01:11:23.37034"
    PERFORMER "Владимир Михайлович Зазнобин. Видеоархив"
    INDEX 01 71:23:28
  TRACK 313 AUDIO
    TITLE "01:11:36.31912"
    PERFORMER "Владимир Михайлович Зазнобин. Видеоархив"
    INDEX 01 71:36:24
  TRACK 314 AUDIO
    TITLE "01:11:50.72379"
    PERFORMER "Владимир Михайлович Зазнобин. Видеоархив"
    INDEX 01 71:50:54
  TRACK 315 AUDIO
    TITLE "01:12:06.01868"
    PERFORMER "Владимир Михайлович Зазнобин. Видеоархив"
    INDEX 01 72:06:01
  TRACK 316 AUDIO
    TITLE "01:12:19.51079"
    PERFORMER "Владимир Михайлович Зазнобин. Видеоархив"
    INDEX 01 72:19:38
  TRACK 317 AUDIO
    TITLE "01:12:32.20925"
    PERFORMER "Владимир Михайлович Зазнобин. Видеоархив"
    INDEX 01 72:32:16
  TRACK 318 AUDIO
    TITLE "01:12:45.66050"
    PERFORMER "Владимир Михайлович Зазнобин. Видеоархив"
    INDEX 01 72:45:50
  TRACK 319 AUDIO
    TITLE "01:12:59.07739"
    PERFORMER "Владимир Михайлович Зазнобин. Видеоархив"
    INDEX 01 72:59:06
  TRACK 320 AUDIO
    TITLE "01:13:12.34054"
    PERFORMER "Владимир Михайлович Зазнобин. Видеоархив"
    INDEX 01 73:12:26
  TRACK 321 AUDIO
    TITLE "01:13:26.30914"
    PERFORMER "Владимир Михайлович Зазнобин. Видеоархив"
    INDEX 01 73:26:23
  TRACK 322 AUDIO
    TITLE "01:13:39.90528"
    PERFORMER "Владимир Михайлович Зазнобин. Видеоархив"
    INDEX 01 73:39:68
  TRACK 323 AUDIO
    TITLE "01:13:53.99322"
    PERFORMER "Владимир Михайлович Зазнобин. Видеоархив"
    INDEX 01 73:53:74
  TRACK 324 AUDIO
    TITLE "01:14:06.90159"
    PERFORMER "Владимир Михайлович Зазнобин. Видеоархив"
    INDEX 01 74:06:68
  TRACK 325 AUDIO
    TITLE "01:14:20.38812"
    PERFORMER "Владимир Михайлович Зазнобин. Видеоархив"
    INDEX 01 74:20:29
  TRACK 326 AUDIO
    TITLE "01:14:33.06197"
    PERFORMER "Владимир Михайлович Зазнобин. Видеоархив"
    INDEX 01 74:33:05
  TRACK 327 AUDIO
    TITLE "01:14:47.28968"
    PERFORMER "Владимир Михайлович Зазнобин. Видеоархив"
    INDEX 01 74:47:22
  TRACK 328 AUDIO
    TITLE "01:15:02.68816"
    PERFORMER "Владимир Михайлович Зазнобин. Видеоархив"
    INDEX 01 75:02:52
  TRACK 329 AUDIO
    TITLE "01:15:15.33367"
    PERFORMER "Владимир Михайлович Зазнобин. Видеоархив"
    INDEX 01 75:15:25
  TRACK 330 AUDIO
    TITLE "01:15:30.02116"
    PERFORMER "Владимир Михайлович Зазнобин. Видеоархив"
    INDEX 01 75:30:02
  TRACK 331 AUDIO
    TITLE "01:15:43.79655"
    PERFORMER "Владимир Михайлович Зазнобин. Видеоархив"
    INDEX 01 75:43:60
  TRACK 332 AUDIO
    TITLE "01:15:56.51730"
    PERFORMER "Владимир Михайлович Зазнобин. Видеоархив"
    INDEX 01 75:56:39
  TRACK 333 AUDIO
    TITLE "01:16:09.35553"
    PERFORMER "Владимир Михайлович Зазнобин. Видеоархив"
    INDEX 01 76:09:27
  TRACK 334 AUDIO
    TITLE "01:16:22.01220"
    PERFORMER "Владимир Михайлович Зазнобин. Видеоархив"
    INDEX 01 76:22:01
  TRACK 335 AUDIO
    TITLE "01:16:34.95447"
    PERFORMER "Владимир Михайлович Зазнобин. Видеоархив"
    INDEX 01 76:34:72
  TRACK 336 AUDIO
    TITLE "01:16:48.31005"
    PERFORMER "Владимир Михайлович Зазнобин. Видеоархив"
    INDEX 01 76:48:23
  TRACK 337 AUDIO
    TITLE "01:17:03.58778"
    PERFORMER "Владимир Михайлович Зазнобин. Видеоархив"
    INDEX 01 77:03:44
  TRACK 338 AUDIO
    TITLE "01:17:18.28175"
    PERFORMER "Владимир Михайлович Зазнобин. Видеоархив"
    INDEX 01 77:18:21
  TRACK 339 AUDIO
    TITLE "01:17:31.41304"
    PERFORMER "Владимир Михайлович Зазнобин. Видеоархив"
    INDEX 01 77:31:31
  TRACK 340 AUDIO
    TITLE "01:17:43.90159"
    PERFORMER "Владимир Михайлович Зазнобин. Видеоархив"
    INDEX 01 77:43:68
  TRACK 341 AUDIO
    TITLE "01:17:57.50515"
    PERFORMER "Владимир Михайлович Зазнобин. Видеоархив"
    INDEX 01 77:57:38
  TRACK 342 AUDIO
    TITLE "01:18:12.34263"
    PERFORMER "Владимир Михайлович Зазнобин. Видеоархив"
    INDEX 01 78:12:26
  TRACK 343 AUDIO
    TITLE "01:18:25.94760"
    PERFORMER "Владимир Михайлович Зазнобин. Видеоархив"
    INDEX 01 78:25:71
  TRACK 344 AUDIO
    TITLE "01:18:38.61122"
    PERFORMER "Владимир Михайлович Зазнобин. Видеоархив"
    INDEX 01 78:38:46
  TRACK 345 AUDIO
    TITLE "01:18:53.14592"
    PERFORMER "Владимир Михайлович Зазнобин. Видеоархив"
    INDEX 01 78:53:11
  TRACK 346 AUDIO
    TITLE "01:19:05.97254"
    PERFORMER "Владимир Михайлович Зазнобин. Видеоархив"
    INDEX 01 79:05:73
  TRACK 347 AUDIO
    TITLE "01:19:21.09562"
    PERFORMER "Владимир Михайлович Зазнобин. Видеоархив"
    INDEX 01 79:21:07
  TRACK 348 AUDIO
    TITLE "01:19:33.70306"
    PERFORMER "Владимир Михайлович Зазнобин. Видеоархив"
    INDEX 01 79:33:53
  TRACK 349 AUDIO
    TITLE "01:19:47.68327"
    PERFORMER "Владимир Михайлович Зазнобин. Видеоархив"
    INDEX 01 79:47:51
  TRACK 350 AUDIO
    TITLE "01:20:01.26175"
    PERFORMER "Владимир Михайлович Зазнобин. Видеоархив"
    INDEX 01 80:01:20
  TRACK 351 AUDIO
    TITLE "01:20:15.82104"
    PERFORMER "Владимир Михайлович Зазнобин. Видеоархив"
    INDEX 01 80:15:62
  TRACK 352 AUDIO
    TITLE "01:20:29.86347"
    PERFORMER "Владимир Михайлович Зазнобин. Видеоархив"
    INDEX 01 80:29:65
  TRACK 353 AUDIO
    TITLE "01:20:44.55698"
    PERFORMER "Владимир Михайлович Зазнобин. Видеоархив"
    INDEX 01 80:44:42
  TRACK 354 AUDIO
    TITLE "01:20:58.27946"
    PERFORMER "Владимир Михайлович Зазнобин. Видеоархив"
    INDEX 01 80:58:21
  TRACK 355 AUDIO
    TITLE "01:21:11.29927"
    PERFORMER "Владимир Михайлович Зазнобин. Видеоархив"
    INDEX 01 81:11:22
  TRACK 356 AUDIO
    TITLE "01:21:25.11460"
    PERFORMER "Владимир Михайлович Зазнобин. Видеоархив"
    INDEX 01 81:25:09
  TRACK 357 AUDIO
    TITLE "01:21:38.35780"
    PERFORMER "Владимир Михайлович Зазнобин. Видеоархив"
    INDEX 01 81:38:27
  TRACK 358 AUDIO
    TITLE "01:21:52.71741"
    PERFORMER "Владимир Михайлович Зазнобин. Видеоархив"
    INDEX 01 81:52:54
  TRACK 359 AUDIO
    TITLE "01:22:06.51324"
    PERFORMER "Владимир Михайлович Зазнобин. Видеоархив"
    INDEX 01 82:06:38
  TRACK 360 AUDIO
    TITLE "01:22:20.46603"
    PERFORMER "Владимир Михайлович Зазнобин. Видеоархив"
    INDEX 01 82:20:35
  TRACK 361 AUDIO
    TITLE "01:22:33.83417"
    PERFORMER "Владимир Михайлович Зазнобин. Видеоархив"
    INDEX 01 82:33:63
  TRACK 362 AUDIO
    TITLE "01:22:46.21451"
    PERFORMER "Владимир Михайлович Зазнобин. Видеоархив"
    INDEX 01 82:46:16
  TRACK 363 AUDIO
    TITLE "01:23:00.85091"
    PERFORMER "Владимир Михайлович Зазнобин. Видеоархив"
    INDEX 01 83:00:64
  TRACK 364 AUDIO
    TITLE "01:23:13.71098"
    PERFORMER "Владимир Михайлович Зазнобин. Видеоархив"
    INDEX 01 83:13:53
  TRACK 365 AUDIO
    TITLE "01:23:26.46050"
    PERFORMER "Владимир Михайлович Зазнобин. Видеоархив"
    INDEX 01 83:26:35
  TRACK 366 AUDIO
    TITLE "01:23:39.35633"
    PERFORMER "Владимир Михайлович Зазнобин. Видеоархив"
    INDEX 01 83:39:27
  TRACK 367 AUDIO
    TITLE "01:23:52.66129"
    PERFORMER "Владимир Михайлович Зазнобин. Видеоархив"
    INDEX 01 83:52:50
  TRACK 368 AUDIO
    TITLE "01:24:05.49025"
    PERFORMER "Владимир Михайлович Зазнобин. Видеоархив"
    INDEX 01 84:05:37
  TRACK 369 AUDIO
    TITLE "01:24:19.95807"
    PERFORMER "Владимир Михайлович Зазнобин. Видеоархив"
    INDEX 01 84:19:72
  TRACK 370 AUDIO
    TITLE "01:24:34.15281"
    PERFORMER "Владимир Михайлович Зазнобин. Видеоархив"
    INDEX 01 84:34:11
  TRACK 371 AUDIO
    TITLE "01:24:48.00948"
    PERFORMER "Владимир Михайлович Зазнобин. Видеоархив"
    INDEX 01 84:48:01
  TRACK 372 AUDIO
    TITLE "01:25:01.48442"
    PERFORMER "Владимир Михайлович Зазнобин. Видеоархив"
    INDEX 01 85:01:36
  TRACK 373 AUDIO
    TITLE "01:25:14.65469"
    PERFORMER "Владимир Михайлович Зазнобин. Видеоархив"
    INDEX 01 85:14:49
  TRACK 374 AUDIO
    TITLE "01:25:27.28673"
    PERFORMER "Владимир Михайлович Зазнобин. Видеоархив"
    INDEX 01 85:27:22
  TRACK 375 AUDIO
    TITLE "01:25:40.85966"
    PERFORMER "Владимир Михайлович Зазнобин. Видеоархив"
    INDEX 01 85:40:64
  TRACK 376 AUDIO
    TITLE "01:25:53.94265"
    PERFORMER "Владимир Михайлович Зазнобин. Видеоархив"
    INDEX 01 85:53:71
  TRACK 377 AUDIO
    TITLE "01:26:06.89141"
    PERFORMER "Владимир Михайлович Зазнобин. Видеоархив"
    INDEX 01 86:06:67
  TRACK 378 AUDIO
    TITLE "01:26:20.46805"
    PERFORMER "Владимир Михайлович Зазнобин. Видеоархив"
    INDEX 01 86:20:35
  TRACK 379 AUDIO
    TITLE "01:26:34.18492"
    PERFORMER "Владимир Михайлович Зазнобин. Видеоархив"
    INDEX 01 86:34:14
  TRACK 380 AUDIO
    TITLE "01:26:48.15306"
    PERFORMER "Владимир Михайлович Зазнобин. Видеоархив"
    INDEX 01 86:48:11
  TRACK 381 AUDIO
    TITLE "01:27:02.81268"
    PERFORMER "Владимир Михайлович Зазнобин. Видеоархив"
    INDEX 01 87:02:61
  TRACK 382 AUDIO
    TITLE "01:27:16.43435"
    PERFORMER "Владимир Михайлович Зазнобин. Видеоархив"
    INDEX 01 87:16:33
  TRACK 383 AUDIO
    TITLE "01:27:32.04599"
    PERFORMER "Владимир Михайлович Зазнобин. Видеоархив"
    INDEX 01 87:32:03
  TRACK 384 AUDIO
    TITLE "01:27:46.08655"
    PERFORMER "Владимир Михайлович Зазнобин. Видеоархив"
    INDEX 01 87:46:06
  TRACK 385 AUDIO
    TITLE "01:27:59.38454"
    PERFORMER "Владимир Михайлович Зазнобин. Видеоархив"
    INDEX 01 87:59:29
  TRACK 386 AUDIO
    TITLE "01:28:12.06304"
    PERFORMER "Владимир Михайлович Зазнобин. Видеоархив"
    INDEX 01 88:12:05
  TRACK 387 AUDIO
    TITLE "01:28:25.92342"
    PERFORMER "Владимир Михайлович Зазнобин. Видеоархив"
    INDEX 01 88:25:69
  TRACK 388 AUDIO
    TITLE "01:28:39.69045"
    PERFORMER "Владимир Михайлович Зазнобин. Видеоархив"
    INDEX 01 88:39:52
  TRACK 389 AUDIO
    TITLE "01:28:55.24914"
    PERFORMER "Владимир Михайлович Зазнобин. Видеоархив"
    INDEX 01 88:55:19
  TRACK 390 AUDIO
    TITLE "01:29:09.63941"
    PERFORMER "Владимир Михайлович Зазнобин. Видеоархив"
    INDEX 01 89:09:48
  TRACK 391 AUDIO
    TITLE "01:29:23.49887"
    PERFORMER "Владимир Михайлович Зазнобин. Видеоархив"
    INDEX 01 89:23:37
  TRACK 392 AUDIO
    TITLE "01:29:38.13712"
    PERFORMER "Владимир Михайлович Зазнобин. Видеоархив"
    INDEX 01 89:38:10
  TRACK 393 AUDIO
    TITLE "01:29:51.60322"
    PERFORMER "Владимир Михайлович Зазнобин. Видеоархив"
    INDEX 01 89:51:45
  TRACK 394 AUDIO
    TITLE "01:30:05.65075"
    PERFORMER "Владимир Михайлович Зазнобин. Видеоархив"
    INDEX 01 90:05:49
  TRACK 395 AUDIO
    TITLE "01:30:18.78528"
    PERFORMER "Владимир Михайлович Зазнобин. Видеоархив"
    INDEX 01 90:18:59
  TRACK 396 AUDIO
    TITLE "01:30:32.24256"
    PERFORMER "Владимир Михайлович Зазнобин. Видеоархив"
    INDEX 01 90:32:18
  TRACK 397 AUDIO
    TITLE "01:30:46.97834"
    PERFORMER "Владимир Михайлович Зазнобин. Видеоархив"
    INDEX 01 90:46:73
  TRACK 398 AUDIO
    TITLE "01:31:02.37263"
    PERFORMER "Владимир Михайлович Зазнобин. Видеоархив"
    INDEX 01 91:02:28
  TRACK 399 AUDIO
    TITLE "01:31:14.89649"
    PERFORMER "Владимир Михайлович Зазнобин. Видеоархив"
    INDEX 01 91:14:67
  TRACK 400 AUDIO
    TITLE "01:31:27.95392"
    PERFORMER "Владимир Михайлович Зазнобин. Видеоархив"
    INDEX 01 91:27:72
  TRACK 401 AUDIO
    TITLE "01:31:40.63472"
    PERFORMER "Владимир Михайлович Зазнобин. Видеоархив"
    INDEX 01 91:40:48
  TRACK 402 AUDIO
    TITLE "01:31:53.37544"
    PERFORMER "Владимир Михайлович Зазнобин. Видеоархив"
    INDEX 01 91:53:28
  TRACK 403 AUDIO
    TITLE "01:32:06.32653"
    PERFORMER "Владимир Михайлович Зазнобин. Видеоархив"
    INDEX 01 92:06:24
  TRACK 404 AUDIO
    TITLE "01:32:21.39295"
    PERFORMER "Владимир Михайлович Зазнобин. Видеоархив"
    INDEX 01 92:21:29
  TRACK 405 AUDIO
    TITLE "01:32:36.27828"
    PERFORMER "Владимир Михайлович Зазнобин. Видеоархив"
    INDEX 01 92:36:21
  TRACK 406 AUDIO
    TITLE "01:32:51.46961"
    PERFORMER "Владимир Михайлович Зазнобин. Видеоархив"
    INDEX 01 92:51:35
  TRACK 407 AUDIO
    TITLE "01:33:08.20741"
    PERFORMER "Владимир Михайлович Зазнобин. Видеоархив"
    INDEX 01 93:08:16
  TRACK 408 AUDIO
    TITLE "01:33:21.95914"
    PERFORMER "Владимир Михайлович Зазнобин. Видеоархив"
    INDEX 01 93:21:72
  TRACK 409 AUDIO
    TITLE "01:33:36.79846"
    PERFORMER "Владимир Михайлович Зазнобин. Видеоархив"
    INDEX 01 93:36:60
  TRACK 410 AUDIO
    TITLE "01:33:50.19213"
    PERFORMER "Владимир Михайлович Зазнобин. Видеоархив"
    INDEX 01 93:50:14
  TRACK 411 AUDIO
    TITLE "01:34:03.92991"
    PERFORMER "Владимир Михайлович Зазнобин. Видеоархив"
    INDEX 01 94:03:70
  TRACK 412 AUDIO
    TITLE "01:34:16.40964"
    PERFORMER "Владимир Михайлович Зазнобин. Видеоархив"
    INDEX 01 94:16:31
  TRACK 413 AUDIO
    TITLE "01:34:29.26134"
    PERFORMER "Владимир Михайлович Зазнобин. Видеоархив"
    INDEX 01 94:29:20
  TRACK 414 AUDIO
    TITLE "01:34:43.13937"
    PERFORMER "Владимир Михайлович Зазнобин. Видеоархив"
    INDEX 01 94:43:10
  TRACK 415 AUDIO
    TITLE "01:34:58.12220"
    PERFORMER "Владимир Михайлович Зазнобин. Видеоархив"
    INDEX 01 94:58:09
  TRACK 416 AUDIO
    TITLE "01:35:11.55488"
    PERFORMER "Владимир Михайлович Зазнобин. Видеоархив"
    INDEX 01 95:11:42
  TRACK 417 AUDIO
    TITLE "01:35:24.57424"
    PERFORMER "Владимир Михайлович Зазнобин. Видеоархив"
    INDEX 01 95:24:43
  TRACK 418 AUDIO
    TITLE "01:35:37.83694"
    PERFORMER "Владимир Михайлович Зазнобин. Видеоархив"
    INDEX 01 95:37:63
  TRACK 419 AUDIO
    TITLE "01:35:53.24655"
    PERFORMER "Владимир Михайлович Зазнобин. Видеоархив"
    INDEX 01 95:53:18
  TRACK 420 AUDIO
    TITLE "01:36:06.70893"
    PERFORMER "Владимир Михайлович Зазнобин. Видеоархив"
    INDEX 01 96:06:53
  TRACK 421 AUDIO
    TITLE "01:36:20.71098"
    PERFORMER "Владимир Михайлович Зазнобин. Видеоархив"
    INDEX 01 96:20:53
  TRACK 422 AUDIO
    TITLE "01:36:34.25603"
    PERFORMER "Владимир Михайлович Зазнобин. Видеоархив"
    INDEX 01 96:34:19
  TRACK 423 AUDIO
    TITLE "01:36:48.22229"
    PERFORMER "Владимир Михайлович Зазнобин. Видеоархив"
    INDEX 01 96:48:17
  TRACK 424 AUDIO
    TITLE "01:37:03.03052"
    PERFORMER "Владимир Михайлович Зазнобин. Видеоархив"
    INDEX 01 97:03:02
  TRACK 425 AUDIO
    TITLE "01:37:18.80701"
    PERFORMER "Владимир Михайлович Зазнобин. Видеоархив"
    INDEX 01 97:18:61
  TRACK 426 AUDIO
    TITLE "01:37:32.24061"
    PERFORMER "Владимир Михайлович Зазнобин. Видеоархив"
    INDEX 01 97:32:18
  TRACK 427 AUDIO
    TITLE "01:37:48.93104"
    PERFORMER "Владимир Михайлович Зазнобин. Видеоархив"
    INDEX 01 97:48:70
  TRACK 428 AUDIO
    TITLE "01:38:02.36417"
    PERFORMER "Владимир Михайлович Зазнобин. Видеоархив"
    INDEX 01 98:02:27
  TRACK 429 AUDIO
    TITLE "01:38:14.89685"
    PERFORMER "Владимир Михайлович Зазнобин. Видеоархив"
    INDEX 01 98:14:67
  TRACK 430 AUDIO
    TITLE "01:38:28.17950"
    PERFORMER "Владимир Михайлович Зазнобин. Видеоархив"
    INDEX 01 98:28:13
  TRACK 431 AUDIO
    TITLE "01:38:41.08415"
    PERFORMER "Владимир Михайлович Зазнобин. Видеоархив"
    INDEX 01 98:41:06
  TRACK 432 AUDIO
    TITLE "01:38:55.28449"
    PERFORMER "Владимир Михайлович Зазнобин. Видеоархив"
    INDEX 01 98:55:21
  TRACK 433 AUDIO
    TITLE "01:39:08.29966"
    PERFORMER "Владимир Михайлович Зазнобин. Видеоархив"
    INDEX 01 99:08:22
  TRACK 434 AUDIO
    TITLE "01:39:22.00726"
    PERFORMER "Владимир Михайлович Зазнобин. Видеоархив"
    INDEX 01 99:22:01
  TRACK 435 AUDIO
    TITLE "01:39:35.60340"
    PERFORMER "Владимир Михайлович Зазнобин. Видеоархив"
    INDEX 01 99:35:45
  TRACK 436 AUDIO
    TITLE "01:39:49.67973"
    PERFORMER "Владимир Михайлович Зазнобин. Видеоархив"
    INDEX 01 99:49:51
  TRACK 437 AUDIO
    TITLE "01:40:04.30730"
    PERFORMER "Владимир Михайлович Зазнобин. Видеоархив"
    INDEX 01 100:04:23
  TRACK 438 AUDIO
    TITLE "01:40:18.80855"
    PERFORMER "Владимир Михайлович Зазнобин. Видеоархив"
    INDEX 01 100:18:61
  TRACK 439 AUDIO
    TITLE "01:40:31.70159"
    PERFORMER "Владимир Михайлович Зазнобин. Видеоархив"
    INDEX 01 100:31:53
  TRACK 440 AUDIO
    TITLE "01:40:46.46707"
    PERFORMER "Владимир Михайлович Зазнобин. Видеоархив"
    INDEX 01 100:46:35
  TRACK 441 AUDIO
    TITLE "01:41:03.74916"
    PERFORMER "Владимир Михайлович Зазнобин. Видеоархив"
    INDEX 01 101:03:56
  TRACK 442 AUDIO
    TITLE "01:41:17.82132"
    PERFORMER "Владимир Михайлович Зазнобин. Видеоархив"
    INDEX 01 101:17:62
  TRACK 443 AUDIO
    TITLE "01:41:30.93354"
    PERFORMER "Владимир Михайлович Зазнобин. Видеоархив"
    INDEX 01 101:30:70
  TRACK 444 AUDIO
    TITLE "01:41:44.02163"
    PERFORMER "Владимир Михайлович Зазнобин. Видеоархив"
    INDEX 01 101:44:02
  TRACK 445 AUDIO
    TITLE "01:41:56.83526"
    PERFORMER "Владимир Михайлович Зазнобин. Видеоархив"
    INDEX 01 101:56:63
